HIERARCHY
ROOT hip
{
  OFFSET 0 0 0
  CHANNELS 6 Xposition Yposition Zposition Zrotation Yrotation Xrotation
  JOINT abdomen
  {
    OFFSET 0 20.6881 -0.73152
    CHANNELS 3 Zrotation Xrotation Yrotation
    JOINT chest
    {
      OFFSET 0 11.7043 -0.48768
      CHANNELS 3 Zrotation Xrotation Yrotation
      JOINT neck
      {
        OFFSET 0 22.1894 -2.19456
        CHANNELS 3 Zrotation Xrotation Yrotation
        JOINT head
        {
          OFFSET -0.24384 7.07133 1.2192
          CHANNELS 3 Zrotation Xrotation Yrotation
          JOINT leftEye
          {
            OFFSET 4.14528 8.04674 8.04672
            CHANNELS 3 Zrotation Xrotation Yrotation
            End Site
            {
              OFFSET 1 0 0
            }
          }
          JOINT rightEye
          {
            OFFSET -3.6576 8.04674 8.04672
            CHANNELS 3 Zrotation Xrotation Yrotation
            End Site
            {
              OFFSET 1 0 0
            }
          }
        }
      }
      JOINT rCollar
      {
        OFFSET -2.68224 19.2634 -4.8768
        CHANNELS 3 Zrotation Xrotation Yrotation
        JOINT rShldr
        {
          OFFSET -8.77824 -1.95073 1.46304
          CHANNELS 3 Zrotation Xrotation Yrotation
          JOINT rForeArm
          {
            OFFSET -28.1742 -1.7115 0.48768
            CHANNELS 3 Zrotation Xrotation Yrotation
            JOINT rHand
            {
              OFFSET -22.5879 0.773209 7.07136
              CHANNELS 3 Zrotation Xrotation Yrotation
              JOINT rThumb1
              {
                OFFSET -1.2192 -0.487915 3.41376
                CHANNELS 3 Zrotation Xrotation Yrotation
                JOINT rThumb2
                {
                  OFFSET -3.37035 -0.52449 3.41376
                  CHANNELS 3 Zrotation Xrotation Yrotation
                  End Site
                  {
                    OFFSET -1.78271 -1.18214 1.43049
                  }
                }
              }
              JOINT rIndex1
              {
                OFFSET -7.75947 0.938293 5.60832
                CHANNELS 3 Zrotation Xrotation Yrotation
                JOINT rIndex2
                {
                  OFFSET -2.54057 -0.884171 1.56538
                  CHANNELS 3 Zrotation Xrotation Yrotation
                  End Site
                  {
                    OFFSET -1.62519 -0.234802 1.16502
                  }
                }
              }
              JOINT rMid1
              {
                OFFSET -8.24714 1.18213 3.41376
                CHANNELS 3 Zrotation Xrotation Yrotation
                JOINT rMid2
                {
                  OFFSET -3.10165 -0.590103 1.0647
                  CHANNELS 3 Zrotation Xrotation Yrotation
                  End Site
                  {
                    OFFSET -2.48547 -0.328903 0.83742
                  }
                }
              }
              JOINT rRing1
              {
                OFFSET -8.82822 0.546677 1.51678
                CHANNELS 3 Zrotation Xrotation Yrotation
                JOINT rRing2
                {
                  OFFSET -2.60934 -0.819778 -0.0198488
                  CHANNELS 3 Zrotation Xrotation Yrotation
                  End Site
                  {
                    OFFSET -2.33842 -0.294052 0.168128
                  }
                }
              }
              JOINT rPinky1
              {
                OFFSET -8.27202 -0.0477905 -0.4584
                CHANNELS 3 Zrotation Xrotation Yrotation
                JOINT rPinky2
                {
                  OFFSET -1.82734 -0.647385 -0.700984
                  CHANNELS 3 Zrotation Xrotation Yrotation
                  End Site
                  {
                    OFFSET -1.69225 -0.51767 -0.607171
                  }
                }
              }
            }
          }
        }
      }
      JOINT lCollar
      {
        OFFSET 2.68224 19.2634 -4.8768
        CHANNELS 3 Zrotation Xrotation Yrotation
        JOINT lShldr
        {
          OFFSET 8.77824 -1.95073 1.46304
          CHANNELS 3 Zrotation Xrotation Yrotation
          JOINT lForeArm
          {
            OFFSET 28.1742 -1.7115 0.48768
            CHANNELS 3 Zrotation Xrotation Yrotation
            JOINT lHand
            {
              OFFSET 22.5879 0.773209 7.07136
              CHANNELS 3 Zrotation Xrotation Yrotation
              JOINT lThumb1
              {
                OFFSET 1.2192 -0.487915 3.41376
                CHANNELS 3 Zrotation Xrotation Yrotation
                JOINT lThumb2
                {
                  OFFSET 3.37035 -0.52449 3.41376
                  CHANNELS 3 Zrotation Xrotation Yrotation
                  End Site
                  {
                    OFFSET 1.78271 -1.18214 1.43049
                  }
                }
              }
              JOINT lIndex1
              {
                OFFSET 7.75947 0.938293 5.60832
                CHANNELS 3 Zrotation Xrotation Yrotation
                JOINT lIndex2
                {
                  OFFSET 2.54057 -0.884171 1.56538
                  CHANNELS 3 Zrotation Xrotation Yrotation
                  End Site
                  {
                    OFFSET 1.62519 -0.234802 1.16502
                  }
                }
              }
              JOINT lMid1
              {
                OFFSET 8.24714 1.18213 3.41376
                CHANNELS 3 Zrotation Xrotation Yrotation
                JOINT lMid2
                {
                  OFFSET 3.10165 -0.590103 1.0647
                  CHANNELS 3 Zrotation Xrotation Yrotation
                  End Site
                  {
                    OFFSET 2.48547 -0.328903 0.83742
                  }
                }
              }
              JOINT lRing1
              {
                OFFSET 8.82822 0.546677 1.51678
                CHANNELS 3 Zrotation Xrotation Yrotation
                JOINT lRing2
                {
                  OFFSET 2.60934 -0.819778 -0.0198488
                  CHANNELS 3 Zrotation Xrotation Yrotation
                  End Site
                  {
                    OFFSET 2.33842 -0.294052 0.168128
                  }
                }
              }
              JOINT lPinky1
              {
                OFFSET 8.27202 -0.0477905 -0.4584
                CHANNELS 3 Zrotation Xrotation Yrotation
                JOINT lPinky2
                {
                  OFFSET 1.82734 -0.647385 -0.700984
                  CHANNELS 3 Zrotation Xrotation Yrotation
                  End Site
                  {
                    OFFSET 1.69225 -0.51767 -0.607171
                  }
                }
              }
            }
          }
        }
      }
    }
  }
  JOINT rButtock
  {
    OFFSET -8.77824 4.35084 1.2192
    CHANNELS 3 Zrotation Xrotation Yrotation
    JOINT rThigh
    {
      OFFSET 0 -1.70687 -2.19456
      CHANNELS 3 Zrotation Xrotation Yrotation
      JOINT rShin
      {
        OFFSET 0 -36.8199 0.73152
        CHANNELS 3 Zrotation Xrotation Yrotation
        JOINT rFoot
        {
          OFFSET 0.73152 -45.1104 -5.12064
          CHANNELS 3 Zrotation Xrotation Yrotation
          End Site
          {
            OFFSET -1.1221 -3.69964 12.103
          }
        }
      }
    }
  }
  JOINT lButtock
  {
    OFFSET 8.77824 4.35084 1.2192
    CHANNELS 3 Zrotation Xrotation Yrotation
    JOINT lThigh
    {
      OFFSET 0 -1.70687 -2.19456
      CHANNELS 3 Zrotation Xrotation Yrotation
      JOINT lShin
      {
        OFFSET 0 -36.8199 0.73152
        CHANNELS 3 Zrotation Xrotation Yrotation
        JOINT lFoot
        {
          OFFSET -0.73152 -45.1104 -5.12064
          CHANNELS 3 Zrotation Xrotation Yrotation
          End Site
          {
            OFFSET 1.1221 -3.69964 12.103
          }
        }
      }
    }
  }
}
MOTION
Frames:	7
Frame Time:	0.00833333
1.92651 84.3996 -71.0395 0.0 0.0 0.0 -0.991223 -0.00434167 -0.0274291 -0.273429 -0.0044755 -0.0473707 9.93004e-15 0.0 4.96962e-17 2.98115e-14 3.18055e-15 2.2208e-16 -0.0 0.0 0.0 -0.0 0.0 0.0 5.0182e-15 9.31803e-18 1.98785e-16 1.0694e-13 5.5287e-16 1.98785e-15 1.81138e-12 -5.32544e-13 6.36111e-15 2.07354e-11 5.91782e-13 1.49486e-13 4.8903e-11 1.21597e-13 3.59403e-13 8.44465e-11 2.06736e-13 5.93969e-13 4.89094e-11 1.24439e-13 3.435e-13 7.73091 5.47488 0.417314 4.89025e-11 1.21557e-13 3.53042e-13 2.90554 0.965183 0.102902 4.89169e-11 1.22253e-13 3.4509e-13 10.2786 0.731801 0.0259123 4.89e-11 1.21656e-13 3.4668e-13 2.22167 -0.733487 -0.20892 4.92135e-15 9.31803e-18 -9.93923e-17 1.03035e-13 2.73329e-16 1.98785e-16 1.81167e-12 5.49441e-13 -2.54444e-14 2.07232e-11 -5.07125e-13 1.78111e-13 4.8887e-11 8.9658e-14 3.33958e-13 8.44346e-11 1.52667e-13 5.88403e-13 4.88819e-11 8.98507e-14 3.40319e-13 -7.73091 5.47488 -0.417314 4.88884e-11 8.97513e-14 3.37139e-13 -2.90554 0.965183 -0.102902 4.88816e-11 8.95525e-14 3.40319e-13 -10.2786 0.731801 -0.0259123 4.88897e-11 9.10434e-14 3.37139e-13 -2.22167 -0.733487 0.20892 -2.03217e-16 0.0 -3.88251e-19 -0.253812 -1.9193 -0.0128545 -0.00928905 -2.07855 -0.0767321 -0.49734 3.99655 0.138106 2.03217e-16 0.0 3.88251e-19 -1.25492 -5.46676 0.109737 -9.48104e-05 4.34722 -0.0243715 0.511638 1.11837 -0.0811241
1.69333 82.9327 -72.9362 -0.9427 0.2136 7.9321 -0.596649 0.516594 -0.364386 0.144799 1.17163 -0.153629 -0.389802 1.51644 0.094825 0.035707 2.67299 0.245171 -0.0 0.0 0.0 -0.0 0.0 0.0 6.26228e-15 -3.48426e-14 3.23025e-16 21.3596 1.19513 2.09104 -3.49385 -1.46627 5.58162 0.164862 9.02781 1.21264 4.50248e-12 6.18701e-12 1.354e-11 8.4147e-12 1.04177e-11 2.38478e-11 4.51418e-12 6.18659e-12 1.35284e-11 7.73091 5.47488 0.417314 4.50753e-12 6.18328e-12 1.35407e-11 2.90554 0.965183 0.102902 4.51497e-12 6.18777e-12 1.35298e-11 10.2786 0.731801 0.0259123 4.49843e-12 6.18678e-12 1.35335e-11 2.22167 -0.733487 -0.20892 6.18314e-15 -3.48427e-14 2.25185e-17 -21.6903 7.62446 -3.56452 2.83644 -1.09888 -4.61513 -0.00324244 -1.26487 0.17761 3.23566e-11 8.32525e-11 -1.85737e-10 5.63812e-11 1.45469e-10 -3.21027e-10 3.23521e-11 8.32532e-11 -1.85732e-10 -7.73091 5.47488 -0.417314 3.23514e-11 8.32509e-11 -1.85739e-10 -2.90554 0.965183 -0.102902 3.23517e-11 8.32543e-11 -1.85734e-10 -10.2786 0.731801 -0.0259123 3.236e-11 8.32559e-11 -1.85739e-10 -2.22167 -0.733487 0.20892 -2.03217e-16 0.0 -3.88251e-19 -0.727802 -6.1987 -0.804998 -0.0116283 3.89705 0.0192546 -0.515047 0.501121 -0.491162 2.03217e-16 0.0 3.88251e-19 -0.307983 -8.83552 1.90352 -0.0133241 8.67905 -0.0989644 0.578924 -1.4446 1.13423
1.69146 82.9355 -72.9261 -0.9488 0.2048 7.8851 -0.172876 1.06964 -0.721778 0.591633 2.41498 -0.266409 -0.807087 3.12565 0.195436 0.0470129 5.49862 0.506303 -0.0 0.0 0.0 -0.0 0.0 0.0 7.8355e-15 -8.3386e-14 8.69683e-16 43.8449 2.45606 4.30435 -6.87945 -2.97065 11.4957 -0.0969605 18.5542 2.59838 -1.03194e-10 1.53378e-11 9.04432e-11 -1.75169e-10 2.43917e-11 1.5862e-10 -1.03176e-10 1.53339e-11 9.04361e-11 7.73091 5.47488 0.417314 -1.03182e-10 1.53301e-11 9.04516e-11 2.90554 0.965183 0.102902 -1.03183e-10 1.53387e-11 9.04373e-11 10.2786 0.731801 0.0259123 -1.03199e-10 1.53373e-11 9.04435e-11 2.22167 -0.733487 -0.20892 7.77582e-15 -8.33861e-14 5.65294e-16 -43.5529 15.5733 -7.54697 5.64194 -2.23613 -9.49745 0.00185985 -2.59436 0.364587 2.86919e-11 1.17537e-10 -4.75576e-10 5.07175e-11 2.06528e-10 -8.21877e-10 2.86882e-11 1.17539e-10 -4.75573e-10 -7.73091 5.47488 -0.417314 2.86795e-11 1.17534e-10 -4.75584e-10 -2.90554 0.965183 -0.102902 2.86876e-11 1.17541e-10 -4.75577e-10 -10.2786 0.731801 -0.0259123 2.86962e-11 1.17543e-10 -4.75584e-10 -2.22167 -0.733487 0.20892 -2.03217e-16 0.0 -3.88251e-19 -1.36024 -10.7226 -1.66184 -0.0361346 10.2133 0.122499 -0.617334 -3.19227 -1.1583 2.03217e-16 0.0 3.88251e-19 0.926801 -12.3828 3.84321 -0.0147096 13.2571 -0.180352 0.768263 -4.14954 2.42312
1.68899 82.9381 -72.8966 -0.9592 0.2009 7.8372 0.210885 1.55824 -1.03864 0.994364 3.52377 -0.366742 -1.18451 4.54926 0.285274 0.0379191 8.01838 0.741968 -0.0 0.0 0.0 -0.0 0.0 0.0 8.75042e-15 -1.04547e-13 5.71506e-16 63.8172 3.56627 6.28396 -9.63608 -4.23211 16.7865 -0.770369 27.0318 4.03417 -8.42987e-11 1.83178e-11 3.99012e-11 -1.43649e-10 3.08397e-11 7.03554e-11 -8.42762e-11 1.83109e-11 3.98981e-11 7.73091 5.47488 0.417314 -8.42824e-11 1.83067e-11 3.99161e-11 2.90554 0.965183 0.102902 -8.42889e-11 1.83188e-11 3.98991e-11 10.2786 0.731801 0.0259123 -8.43048e-11 1.8317e-11 3.99072e-11 2.22167 -0.733487 -0.20892 8.70671e-15 -1.04547e-13 2.6634e-16 -62.0452 22.5045 -11.484 7.98326 -3.21121 -13.865 0.0138421 -3.79447 0.533872 -7.04221e-13 2.49578e-10 -5.57879e-10 2.74451e-13 4.36102e-10 -9.64258e-10 -7.07484e-13 2.4958e-10 -5.57878e-10 -7.73091 5.47488 -0.417314 -7.22596e-13 2.49573e-10 -5.57892e-10 -2.90554 0.965183 -0.102902 -7.08007e-13 2.49584e-10 -5.57883e-10 -10.2786 0.731801 -0.0259123 -6.99371e-13 2.49586e-10 -5.57892e-10 -2.22167 -0.733487 0.20892 -2.03217e-16 0.0 -3.88251e-19 -2.0414 -14.7464 -2.45613 -0.077844 15.8481 0.21933 -0.781521 -6.48666 -1.76024 2.03217e-16 0.0 3.88251e-19 2.23994 -15.5159 5.63009 -0.00441385 17.3426 -0.256554 1.04114 -6.55864 3.58733
1.68336 82.9405 -72.8705 -0.9822 0.1937 7.7935 0.481408 1.88598 -1.25385 1.27752 4.29624 -0.435398 -1.45145 5.5089 0.347405 0.0269542 9.774 0.907812 -0.0 0.0 0.0 -0.0 0.0 0.0 8.01956e-15 -5.725e-14 -1.83876e-15 77.6926 4.31799 7.6689 -11.4129 -5.04544 20.4794 -1.54515 32.9361 5.22376 2.51075e-10 5.8713e-12 -3.29254e-10 4.25629e-10 1.84727e-11 -5.75502e-10 2.51099e-10 5.86216e-12 -3.29254e-10 7.73091 5.47488 0.417314 2.51093e-10 5.85808e-12 -3.29235e-10 2.90554 0.965183 0.102902 2.51083e-10 5.8715e-12 -3.29253e-10 10.2786 0.731801 0.0259123 2.51068e-10 5.87011e-12 -3.29245e-10 2.22167 -0.733487 -0.20892 7.98313e-15 -5.725e-14 -2.13694e-15 -74.3012 27.2405 -14.5621 9.53227 -3.86195 -16.9272 0.0268376 -4.67129 0.65798 -9.44291e-11 6.2601e-10 -1.21341e-10 -1.62117e-10 1.08696e-09 -2.10462e-10 -9.44323e-11 6.26011e-10 -1.21341e-10 -7.73091 5.47488 -0.417314 -9.445e-11 6.26004e-10 -1.21357e-10 -2.90554 0.965183 -0.102902 -9.44324e-11 6.26016e-10 -1.21347e-10 -10.2786 0.731801 -0.0259123 -9.44241e-11 6.26018e-10 -1.21357e-10 -2.22167 -0.733487 0.20892 -2.03217e-16 0.0 -3.88251e-19 -2.58218 -17.53 -3.03311 -0.118668 19.7796 0.291337 -0.937042 -8.78696 -2.18487 2.03217e-16 0.0 3.88251e-19 3.2802 -17.6636 6.91708 0.00966378 20.1966 -0.312529 1.29205 -8.2399 4.417
1.67946 82.943 -72.8442 -0.9966 0.1829 7.7467 0.587262 1.9889 -1.32661 1.38946 4.59786 -0.459372 -1.55936 5.8191 0.370159 0.0368443 10.4569 0.971556 -0.0 0.0 0.0 -0.0 0.0 0.0 5.23068e-15 1.2696e-13 -8.86222e-15 83.1131 4.57888 8.21453 -12.0688 -5.34047 21.9092 -1.93621 35.2798 5.7559 1.2636e-09 -3.44725e-11 -1.39888e-09 2.14515e-09 -2.49131e-11 -2.44694e-09 1.26362e-09 -3.44827e-11 -1.39888e-09 7.73091 5.47488 0.417314 1.26362e-09 -3.44862e-11 -1.39886e-09 2.90554 0.965183 0.102902 1.26361e-09 -3.44746e-11 -1.39888e-09 10.2786 0.731801 0.0259123 1.2636e-09 -3.44745e-11 -1.39887e-09 2.22167 -0.733487 -0.20892 5.18644e-15 1.26961e-13 -9.13788e-15 -78.9443 29.1783 -15.8768 10.1321 -4.11566 -18.1525 0.0341468 -5.10695 0.719782 -3.56475e-10 1.55505e-09 1.37403e-09 -6.1693e-10 2.6911e-09 2.37208e-09 -3.56479e-10 1.55505e-09 1.37403e-09 -7.73091 5.47488 -0.417314 -3.56493e-10 1.55504e-09 1.37402e-09 -2.90554 0.965183 -0.102902 -3.56478e-10 1.55505e-09 1.37403e-09 -10.2786 0.731801 -0.0259123 -3.56471e-10 1.55505e-09 1.37402e-09 -2.22167 -0.733487 0.20892 -2.03217e-16 0.0 -3.88251e-19 -2.80279 -18.5849 -3.26296 -0.136961 21.3269 0.321067 -1.00681 -9.69819 -2.34946 2.03217e-16 0.0 3.88251e-19 3.72134 -18.4644 7.43239 0.0168617 21.3264 -0.335411 1.40805 -8.91153 4.75985
1.67591 82.9456 -72.817 -1.0086 0.1694 7.6995 0.574311 1.93126 -1.29756 1.37815 4.56316 -0.451322 -1.55263 5.66542 0.364647 0.0667838 10.3738 0.961104 -0.0 0.0 0.0 -0.0 0.0 0.0 9.60071e-16 4.07011e-13 -1.9102e-14 82.5129 4.49285 8.15867 -11.9795 -5.29645 21.7163 -1.8996 35.0936 5.71072 2.74867e-09 -9.44429e-11 -2.95673e-09 4.66735e-09 -9.02323e-11 -5.17262e-09 2.74868e-09 -9.44534e-11 -2.95673e-09 7.73091 5.47488 0.417314 2.74868e-09 -9.44559e-11 -2.95672e-09 2.90554 0.965183 0.102902 2.74868e-09 -9.44484e-11 -2.95673e-09 10.2786 0.731801 0.0259123 2.74866e-09 -9.4446e-11 -2.95673e-09 2.22167 -0.733487 -0.20892 8.97382e-16 4.07011e-13 -1.93442e-14 -78.4488 29.2027 -15.7534 10.0903 -4.1021 -18.0623 0.0355141 -5.22699 0.736783 -7.35024e-10 2.86878e-09 3.60989e-09 -1.27416e-09 4.95883e-09 6.23353e-09 -7.35029e-10 2.86878e-09 3.60989e-09 -7.73091 5.47488 -0.417314 -7.35036e-10 2.86878e-09 3.60988e-09 -2.90554 0.965183 -0.102902 -7.35027e-10 2.86878e-09 3.60989e-09 -10.2786 0.731801 -0.0259123 -7.35021e-10 2.86879e-09 3.60988e-09 -2.22167 -0.733487 0.20892 -2.03217e-16 0.0 -3.88251e-19 -2.76482 -18.4071 -3.23271 -0.133785 21.1714 0.318187 -0.997816 -9.61807 -2.32401 2.03217e-16 0.0 3.88251e-19 3.68291 -18.3125 7.37659 0.016112 21.2246 -0.333255 1.40271 -8.86461 4.74975
